<svg xmlns="http://www.w3.org/2000/svg" width="917" height="811" viewBox="0 0 917 811" version="1.1">
	<path d="M 455 21.700 C 452.874 22.469, 447.151 28.932, 446.398 31.415 C 446.050 32.562, 444.638 35.975, 443.260 39 C 441.881 42.025, 439.298 47.875, 437.519 52 C 435.740 56.125, 433.400 61.525, 432.319 64 C 431.238 66.475, 429.543 70.525, 428.551 73 C 426.650 77.746, 424.929 81.860, 423.115 86 C 422.512 87.375, 420.904 91.511, 419.540 95.191 C 418.177 98.871, 415.923 104.243, 414.531 107.128 C 413.139 110.014, 412 112.881, 412 113.499 C 412 114.118, 411.144 116.396, 410.098 118.562 C 406.699 125.597, 403 134.228, 403 135.122 C 403 135.602, 401.606 139.033, 399.902 142.747 C 395.128 153.156, 394 155.756, 394 156.356 C 394 156.661, 392.587 159.968, 390.861 163.705 C 389.134 167.442, 386.839 172.423, 385.760 174.774 C 381.541 183.966, 379.512 184.999, 365.673 185.004 C 358.978 185.006, 340.450 185.485, 324.500 186.067 C 308.550 186.650, 281.100 187.460, 263.500 187.868 C 233.553 188.562, 231.237 188.746, 227.403 190.747 C 222.417 193.349, 219.854 197.037, 219.282 202.434 C 218.805 206.933, 219.118 207.365, 230.557 218 C 235.685 222.768, 240.074 226.638, 254.380 239.009 C 255.964 240.379, 258.461 242.682, 259.929 244.126 C 261.397 245.570, 265.501 249.130, 269.049 252.036 C 272.597 254.943, 276.712 258.598, 278.194 260.160 C 279.675 261.722, 281.325 263, 281.860 263 C 282.395 263, 282.983 263.388, 283.167 263.863 C 283.350 264.338, 287.100 267.830, 291.500 271.623 C 304.630 282.941, 305.215 283.451, 306.512 284.701 C 307.198 285.361, 311.316 288.965, 315.664 292.710 C 320.011 296.455, 324.898 300.752, 326.524 302.259 C 328.150 303.767, 329.822 305, 330.240 305 C 331.328 305, 331.182 310.769, 330.077 311.452 C 329.569 311.766, 328.834 313.478, 328.443 315.257 C 327.701 318.636, 327.095 320.156, 322.062 331.253 C 320.378 334.967, 319 338.460, 319 339.016 C 319 339.572, 318.578 340.809, 318.063 341.764 C 316.818 344.070, 313.637 351.421, 311.470 357 C 310.509 359.475, 308.435 364.207, 306.861 367.516 C 305.288 370.826, 304 374.094, 304 374.780 C 304 375.466, 303.582 376.809, 303.072 377.764 C 301.894 379.965, 298.814 387.172, 296.558 393 C 294.349 398.707, 292.749 402.581, 290.778 407 C 286.843 415.819, 286 417.849, 286 418.500 C 286 418.884, 285.276 420.841, 284.392 422.849 C 281.087 430.351, 280.141 432.613, 278.472 437 C 276.634 441.834, 276.133 443.070, 273.213 450 C 272.169 452.475, 270.727 456.075, 270.008 458 C 268.873 461.037, 265.376 469.707, 260.328 482 C 259.538 483.925, 258.207 486.752, 257.370 488.282 C 250.973 499.982, 257.946 510.813, 269.435 507.022 C 271.396 506.374, 273 505.482, 273 505.039 C 273 504.596, 273.788 503.969, 274.750 503.646 C 275.712 503.322, 277.374 502.483, 278.442 501.779 C 279.510 501.076, 283.251 498.588, 286.755 496.250 C 290.259 493.913, 293.516 492, 293.992 492 C 294.468 492, 295.452 491.414, 296.179 490.698 C 296.905 489.982, 299.525 488.379, 302 487.135 C 304.475 485.891, 307.850 484.077, 309.500 483.104 C 317.116 478.611, 331.345 471, 332.129 471 C 332.608 471, 333 470.580, 333 470.067 C 333 469.554, 333.983 468.823, 335.184 468.442 C 336.385 468.060, 340.548 465.870, 344.434 463.574 C 348.320 461.278, 352.175 459.080, 353 458.689 C 353.825 458.298, 355.850 457.095, 357.500 456.016 C 359.150 454.936, 362.525 452.904, 365 451.500 C 367.475 450.096, 370.850 448.086, 372.500 447.034 C 374.150 445.982, 378.650 443.289, 382.500 441.050 C 386.350 438.811, 390.175 436.543, 391 436.009 C 396.353 432.547, 433.200 411.105, 436.320 409.637 C 438.421 408.648, 440.695 408.053, 441.372 408.313 C 443.008 408.940, 460.406 423.123, 460.833 424.177 C 461.684 426.277, 465.652 424.495, 472.760 418.821 C 482.997 410.649, 513.287 380.537, 516.202 375.634 C 517.466 373.507, 519.257 370.582, 520.182 369.134 C 534.301 347.022, 533.171 327.619, 517.300 319.614 C 510.700 316.285, 484.050 318.874, 481.440 323.098 C 481.133 323.594, 480.243 324, 479.463 324 C 478.682 324, 474.546 325.627, 470.272 327.616 C 455.924 334.291, 433.514 345.032, 432 345.959 C 431.175 346.464, 423.975 350.210, 416 354.283 C 408.025 358.356, 393.443 365.809, 383.596 370.844 C 363.751 380.993, 363.267 381.163, 365.354 377.250 C 366.161 375.738, 367.581 372.700, 368.509 370.500 C 371.435 363.569, 374.110 357.563, 375.072 355.764 C 375.582 354.809, 376 353.426, 376 352.691 C 376 351.956, 377.350 348.568, 379 345.161 C 380.650 341.755, 382 338.541, 382 338.018 C 382 337.495, 382.725 335.365, 383.611 333.284 C 384.497 331.203, 385.784 328.150, 386.471 326.500 C 387.158 324.850, 388.228 322.375, 388.850 321 C 390.329 317.731, 395.867 302.475, 397.199 298 C 399.686 289.648, 397.706 285.558, 387.137 277.221 C 383.487 274.342, 378.475 270.137, 376 267.876 C 373.525 265.616, 368.393 261.232, 364.596 258.134 C 360.799 255.035, 356.558 251.557, 355.171 250.405 L 352.650 248.309 366.075 247.653 C 373.459 247.292, 386.475 246.958, 395 246.911 C 418.171 246.782, 421.647 245.669, 425.542 237.129 C 426.452 235.133, 428.565 230.575, 430.238 227 C 431.910 223.425, 433.870 219.150, 434.593 217.500 C 435.316 215.850, 437.876 210.225, 440.281 205 C 442.687 199.775, 445.738 193.137, 447.063 190.250 C 448.388 187.362, 449.753 185, 450.096 185 C 450.438 185, 451.981 190.287, 453.524 196.750 C 459.142 220.278, 462.762 228.916, 467.799 230.817 C 469.284 231.378, 482.656 232.094, 497.514 232.409 C 521.191 232.910, 534.594 234.016, 537.313 235.694 C 538.267 236.283, 528.064 246.250, 508.500 263.841 C 480.428 289.082, 479.825 290.082, 492.011 291.167 C 530.556 294.601, 543.474 296.958, 554.767 302.617 C 563.528 307.006, 569.763 317.408, 568.363 325.296 C 566.914 333.453, 561.405 347.544, 556.945 354.500 C 555.888 356.150, 554.712 358.175, 554.332 359 C 553.277 361.296, 542.204 375.723, 538.916 379.086 C 537.312 380.727, 536 382.333, 536 382.655 C 536 383.447, 499.325 420, 498.531 420 C 498.187 420, 496.913 421.024, 495.702 422.276 C 494.491 423.528, 491.025 426.559, 488 429.012 C 484.975 431.465, 482.275 433.743, 482 434.073 C 481.174 435.066, 444.978 462, 444.470 462 C 444.212 462, 443.213 462.725, 442.250 463.612 C 440.715 465.026, 428.803 473.494, 415 482.985 C 412.525 484.687, 405.775 488.981, 400 492.527 C 394.225 496.073, 388.809 499.460, 387.964 500.054 C 385.664 501.670, 374.483 508.319, 366 513.116 C 361.875 515.448, 358.275 517.623, 358 517.949 C 357.725 518.274, 356.375 519.099, 355 519.781 C 353.625 520.463, 351.150 521.900, 349.500 522.975 C 347.850 524.050, 344.250 526.109, 341.500 527.550 C 335.968 530.451, 334.358 531.379, 328.500 535.042 C 326.300 536.418, 322.475 538.584, 320 539.856 C 317.525 541.127, 312.800 543.694, 309.500 545.559 C 306.200 547.425, 302.384 549.440, 301.020 550.038 C 299.657 550.636, 298.307 551.434, 298.020 551.813 C 297.734 552.191, 295.700 553.398, 293.500 554.495 C 291.300 555.593, 286.320 558.349, 282.434 560.620 C 278.548 562.891, 274.385 565.060, 273.184 565.442 C 271.983 565.823, 271 566.554, 271 567.067 C 271 567.580, 270.527 568, 269.949 568 C 267.961 568, 246 579.008, 246 580.004 C 246 580.552, 246.351 581, 246.780 581 C 248.028 581, 273.881 572.082, 275.778 570.997 C 276.725 570.455, 282.450 568.397, 288.500 566.423 C 294.550 564.449, 299.927 562.421, 300.450 561.917 C 300.972 561.413, 302.408 561, 303.641 561 C 304.874 561, 306.139 560.585, 306.452 560.077 C 306.766 559.569, 308.466 558.837, 310.229 558.450 C 311.992 558.063, 314.124 557.369, 314.967 556.908 C 317.434 555.560, 325.831 552, 326.544 552 C 326.904 552, 328.841 551.289, 330.849 550.419 C 332.857 549.550, 337.650 547.473, 341.500 545.804 C 345.350 544.135, 350.075 542.097, 352 541.275 C 353.925 540.453, 356.175 539.377, 357 538.884 C 357.825 538.391, 359.175 537.711, 360 537.373 C 370.768 532.965, 422.266 507.391, 427.645 503.782 C 429.925 502.252, 432.137 501, 432.561 501 C 432.985 501, 436.581 498.975, 440.552 496.500 C 444.523 494.025, 448.028 492, 448.342 492 C 448.655 492, 450.619 490.830, 452.706 489.400 C 454.793 487.970, 457.400 486.376, 458.500 485.857 C 460.736 484.803, 462.573 483.703, 468.730 479.730 C 471.057 478.228, 473.212 477, 473.521 477 C 474.111 477, 480.144 472.908, 481 471.927 C 481.275 471.612, 482.175 471.032, 483 470.638 C 487.236 468.615, 507.385 454.994, 507.833 453.850 C 508.017 453.382, 508.804 453, 509.583 453 C 510.363 453, 511 452.605, 511 452.121 C 511 451.638, 512.350 450.683, 514 450 C 515.650 449.317, 517 448.362, 517 447.879 C 517 447.395, 517.675 447, 518.500 447 C 519.325 447, 520 446.593, 520 446.095 C 520 445.597, 521.913 444.060, 524.250 442.680 C 526.587 441.299, 529.400 439.340, 530.500 438.327 C 531.600 437.313, 534.772 434.688, 537.548 432.492 C 557.274 416.893, 587.834 388.398, 597.500 376.592 C 599.700 373.905, 603.075 369.824, 605 367.524 C 614.505 356.165, 616.571 353.601, 617.415 352.113 C 617.918 351.226, 618.614 350.275, 618.961 350 C 620.565 348.731, 629 337.032, 629 336.076 C 629 335.484, 629.357 335, 629.794 335 C 630.632 335, 642.446 317.341, 644.072 313.658 C 644.596 312.471, 645.936 309.992, 647.049 308.148 C 656.679 292.201, 654.270 279.574, 640.229 272.402 C 633.377 268.902, 630.449 268.605, 587.397 267.042 C 559.152 266.016, 557 265.293, 557 256.823 C 557 248.559, 564.843 240.211, 604.500 206.266 C 608.350 202.970, 613.746 198.075, 616.492 195.387 C 621.023 190.950, 625.667 186.806, 644.903 170.034 C 648.350 167.028, 652.145 163.904, 653.336 163.092 C 654.526 162.280, 655.725 161.365, 656 161.058 C 656.275 160.751, 661 156.902, 666.500 152.505 C 672 148.108, 676.994 144.046, 677.598 143.479 C 678.202 142.911, 681.014 140.679, 683.848 138.518 C 686.682 136.357, 689 134.231, 689 133.795 C 689 133.358, 689.675 133, 690.500 133 C 691.325 133, 692 132.628, 692 132.173 C 692 131.719, 694.700 129.391, 698 127 C 701.300 124.609, 704 122.281, 704 121.827 C 704 121.372, 704.474 121, 705.054 121 C 705.634 121, 707.547 119.652, 709.304 118.005 C 711.062 116.357, 712.769 115.007, 713.097 115.005 C 713.425 115.002, 714.685 114.141, 715.895 113.091 C 717.106 112.041, 719.969 109.678, 722.257 107.841 C 733.957 98.446, 734.700 96.691, 725.815 99.441 C 722.892 100.346, 718.025 101.788, 715 102.645 C 711.975 103.502, 708.226 104.833, 706.669 105.602 C 705.112 106.371, 702.990 107, 701.953 107 C 700.916 107, 698.590 107.615, 696.784 108.366 C 693.107 109.896, 679.109 114.677, 674.500 115.978 C 670.610 117.075, 665.829 118.772, 659 121.476 C 655.975 122.674, 650.125 124.677, 646 125.926 C 641.875 127.176, 636.475 128.998, 634 129.976 C 631.525 130.954, 624.775 133.229, 619 135.033 C 613.225 136.837, 607.825 138.673, 607 139.114 C 606.175 139.554, 600.775 141.486, 595 143.406 C 584.090 147.034, 579.917 148.444, 574 150.500 C 565.827 153.340, 562.941 154.306, 552.500 157.694 C 546.450 159.658, 538.125 162.495, 534 164 C 512.317 171.909, 508.770 172.246, 507.737 166.500 C 507.440 164.850, 506.002 159.450, 504.540 154.500 C 503.079 149.550, 501.176 143.025, 500.311 140 C 499.445 136.975, 497.480 130.450, 495.943 125.500 C 494.407 120.550, 492.394 113.575, 491.471 110 C 490.547 106.425, 489.211 101.925, 488.500 100 C 487.789 98.075, 486.435 93.575, 485.490 90 C 484.545 86.425, 483.148 81.507, 482.386 79.072 C 481.624 76.636, 480.997 73.936, 480.994 73.072 C 480.990 72.207, 480.315 70.211, 479.494 68.636 C 478.672 67.060, 478 65.199, 478 64.501 C 478 63.802, 477.340 61.040, 476.534 58.365 C 475.727 55.689, 474.171 49.900, 473.076 45.500 C 469.151 29.734, 466.507 24.528, 461.328 22.364 C 457.846 20.909, 457.337 20.855, 455 21.700 M 698.139 175.589 C 696.962 178.663, 696 181.738, 696 182.422 C 696 183.753, 690.577 196.367, 687.692 201.749 C 682.958 210.577, 671.738 217.615, 657 221 C 655.075 221.442, 652.150 222.288, 650.500 222.879 C 648.850 223.470, 645.475 224.564, 643 225.310 C 638.087 226.791, 636.948 229.331, 641 229.773 C 648.226 230.561, 664.027 235.542, 669 238.600 C 679.048 244.777, 681.496 249.583, 681.426 263 C 681.373 273.377, 681.318 273.611, 676.790 283 C 674.269 288.225, 671.037 294.975, 669.607 298 C 668.177 301.025, 666.582 304.175, 666.064 305 C 665.546 305.825, 663.727 309.575, 662.023 313.333 C 660.319 317.091, 658.485 320.691, 657.948 321.333 C 657.411 321.975, 654.658 326.100, 651.829 330.500 C 649.001 334.900, 645.069 340.899, 643.093 343.832 C 641.117 346.765, 639.050 349.900, 638.500 350.801 C 636.151 354.646, 613.019 384.897, 603.657 396.368 C 597.047 404.466, 600.246 404.090, 609.086 395.729 C 612.708 392.303, 617.883 387.450, 620.586 384.944 C 624.872 380.970, 636.493 368.771, 650.064 354 C 652.338 351.525, 655.580 347.587, 657.269 345.250 C 658.957 342.913, 660.713 341, 661.170 341 C 661.626 341, 662 340.325, 662 339.500 C 662 338.675, 662.389 338, 662.864 338 C 663.339 338, 665.027 336.087, 666.614 333.750 C 668.201 331.413, 669.837 329.350, 670.250 329.167 C 670.663 328.983, 671 328.421, 671 327.917 C 671 327.413, 671.788 326.136, 672.750 325.081 C 676.338 321.146, 697.573 288.921, 698.498 286.007 C 698.848 284.903, 699.554 284, 700.067 284 C 700.580 284, 701.020 283.212, 701.043 282.250 C 701.067 281.288, 702.155 278.700, 703.460 276.500 C 704.765 274.300, 707.556 269.125, 709.661 265 C 711.767 260.875, 713.717 257.275, 713.995 257 C 715.019 255.986, 719 250.064, 719 249.554 C 719 248.223, 728.978 239.332, 732.056 237.920 C 733.950 237.050, 737.075 235.611, 739 234.722 C 740.925 233.832, 746.775 231.676, 752 229.930 C 762.428 226.444, 765.485 224.589, 762.362 223.640 C 757.117 222.047, 740.592 218, 739.329 218 C 736.942 218, 723.393 211.031, 720.205 208.163 C 717.237 205.494, 711.673 195.428, 708.506 187 C 707.577 184.525, 706.230 181.150, 705.515 179.500 C 704.799 177.850, 703.661 175.037, 702.986 173.250 C 701.301 168.793, 700.612 169.125, 698.139 175.589 M 560.147 434.891 C 557.279 437.030, 553.935 439.849, 552.716 441.154 C 551.497 442.458, 547.575 445.727, 544 448.418 C 540.425 451.108, 537.050 453.839, 536.500 454.486 C 535.950 455.133, 532.800 457.518, 529.500 459.788 C 526.200 462.057, 522.193 465.058, 520.594 466.457 C 518.996 467.855, 517.309 469, 516.844 469 C 515.010 469, 516.139 472.861, 518.409 474.348 C 519.734 475.217, 521.938 476.956, 523.306 478.213 C 527.423 481.996, 531.162 485.238, 537.489 490.507 C 540.795 493.262, 544.625 496.483, 546 497.667 C 563.558 512.779, 567.013 515, 572.959 515 C 576.587 515, 578.317 514.380, 581.038 512.105 C 584.435 509.264, 584.499 509.070, 584.441 501.712 C 584.408 497.589, 583.585 491.354, 582.611 487.857 C 579.111 475.292, 578.124 471.379, 576.471 463.500 C 574.090 452.154, 570.330 436.985, 569.097 433.750 C 567.706 430.098, 566.337 430.272, 560.147 434.891 M 137 630.091 C 129.664 631.511, 121.934 636.018, 118.539 640.853 C 115.785 644.774, 115.503 645.899, 115.530 652.840 C 115.591 668.795, 122.647 673.938, 153.363 680.418 C 166.050 683.095, 172.297 685.654, 172.833 688.395 C 173.764 693.161, 167.158 695.157, 150.630 695.101 C 139.200 695.062, 135.745 694.518, 121.500 690.515 C 119.821 690.043, 118.822 691.252, 115.283 698.041 L 111.066 706.130 114.528 707.576 C 130.547 714.269, 160.211 715.639, 175.645 710.399 C 189.719 705.621, 196.156 693.595, 191.551 680.684 C 188.187 671.250, 179.196 666.489, 155.050 661.353 C 136.345 657.374, 130.918 653.721, 137.401 649.473 C 142.888 645.878, 166.161 646.828, 177.500 651.111 C 180.250 652.149, 182.573 652.999, 182.663 652.999 C 183.048 653.001, 191 637.770, 191 637.032 C 191 635.753, 183.295 632.986, 174 630.926 C 164.865 628.903, 145.404 628.463, 137 630.091 M 204.500 643.254 C 195.392 660.489, 195.427 659.148, 204.094 658.795 L 211.352 658.500 220.676 645.018 C 225.804 637.603, 230 631.190, 230 630.768 C 230 630.346, 225.838 630.002, 220.750 630.004 L 211.500 630.009 204.500 643.254 M 235 639 L 235 648 251.500 648 L 268 648 268 680 L 268 712 278 712 L 288 712 288 680 L 288 648 304.500 648 L 321 648 321 639 L 321 630 278 630 L 235 630 235 639 M 327 671 L 327 712 363 712 L 399 712 399 703 L 399 694 373 694 L 347 694 347 686.500 L 347 679 371.500 679 L 396 679 396 670.500 L 396 662 371.500 662 L 347 662 347 655 L 347 648 373 648 L 399 648 399 639 L 399 630 363 630 L 327 630 327 671 M 408 671 L 408 712 444 712 L 480 712 480 703 L 480 694 453.500 694 L 427 694 427 662 L 427 630 417.500 630 L 408 630 408 671 M 486 671 L 486 712 522 712 L 558 712 558 703 L 558 694 532 694 L 506 694 506 662 L 506 630 496 630 L 486 630 486 671 M 581.244 670.503 C 570.110 692.780, 561 711.230, 561 711.503 C 561 711.776, 565.632 712, 571.294 712 L 581.589 712 586 703 L 590.411 694 613.048 694 L 635.685 694 639.784 703 L 643.884 712 654.444 712 L 665.005 712 644.500 671 L 623.995 630 612.742 630 L 601.489 630 581.244 670.503 M 640 630.291 C 640 630.451, 648.549 642.039, 658.997 656.041 L 677.993 681.500 677.997 696.750 L 678 712 688 712 L 698 712 698 697.085 L 698 682.170 717 656.708 C 727.450 642.704, 736 630.965, 736 630.623 C 736 630.280, 731.086 630, 725.081 630 L 714.162 630 701.243 647.400 L 688.324 664.799 675.526 647.400 L 662.727 630 651.363 630 C 645.114 630, 640 630.131, 640 630.291 M 742 671 L 742 712 751.500 712 L 761 712 761 698 L 761 684 774.766 684 L 788.531 684 797.002 697.622 C 801.661 705.114, 805.960 711.431, 806.554 711.659 C 807.149 711.887, 812.196 711.945, 817.769 711.787 L 827.903 711.500 818.452 696.812 C 813.253 688.733, 809.010 681.758, 809.021 681.312 C 809.033 680.865, 810.804 679.254, 812.957 677.732 C 825.646 668.756, 825.389 644.868, 812.507 636.005 C 804.839 630.729, 799.592 630, 769.290 630 L 742 630 742 671 M 605.751 662.174 C 602.039 669.963, 599.164 676.498, 599.363 676.696 C 599.562 676.895, 605.806 676.933, 613.239 676.779 L 626.753 676.500 619.949 662.250 C 616.207 654.413, 613 648.003, 612.822 648.007 C 612.645 648.011, 609.463 654.386, 605.751 662.174 M 761 658.081 L 761 668.162 778.979 667.831 L 796.959 667.500 799.707 664.750 C 801.786 662.669, 802.455 661.029, 802.455 658.005 C 802.455 649.847, 797.716 648.112, 775.250 648.044 L 761 648 761 658.081" stroke="none" fill="#ffffff" fill-rule="evenodd"/>
</svg>